<svg width="68" height="60" viewBox="0 0 68 60" fill="none" xmlns="http://www.w3.org/2000/svg">
<path d="M25.0016 0.0087409H30.8631C33.3237 0.0087409 33.8639 1.00154 32.7136 3.10627C31.0832 6.01518 29.3927 8.87444 27.7123 11.7734C26.522 13.9576 27.0021 14.9007 29.5228 14.9007C33.3537 14.9504 37.1847 14.9007 41.0257 14.9007C41.616 14.9318 42.2024 14.7892 42.7114 14.4907C43.2203 14.1922 43.6291 13.7512 43.8864 13.2229C46.0569 9.4999 48.3475 5.7769 50.4981 1.99434C50.7819 1.36279 51.2549 0.833374 51.8527 0.478098C52.4504 0.122822 53.144 -0.0410613 53.8389 0.0087409C57.7399 0.0881648 61.6509 0.0087409 65.5518 0.0087409C67.9324 0.0087409 68.5526 0.941972 67.4123 2.98714C65.4818 6.50165 63.4113 9.93673 61.4108 13.4612C61.1385 13.9828 60.7169 14.4129 60.199 14.6973C59.6811 14.9818 59.09 15.1078 58.5001 15.0596H46.9972C44.2065 15.0596 43.7664 15.9134 45.1667 18.3259C47.0872 21.6121 48.9577 24.9379 50.9082 28.2539C51.2534 28.7712 51.4324 29.3802 51.4217 30.0005C51.411 30.6209 51.211 31.2234 50.8481 31.7287C48.9877 34.8163 47.1972 37.9436 45.4068 41.0709C44.9166 41.9347 43.9064 42.7984 44.5766 43.8805C45.2467 44.9627 46.477 44.506 47.4873 44.5159C51.0382 44.5159 54.5991 44.5755 58.15 44.5159C58.8505 44.4635 59.5504 44.6258 60.1551 44.9809C60.7597 45.336 61.2399 45.8668 61.5308 46.5015C63.4013 49.8175 65.3818 53.0739 67.2823 56.4295C68.6726 58.8519 68.0625 59.9639 65.2818 59.9937H53.5688C52.9475 60.0334 52.3286 59.8859 51.7932 59.5706C51.2577 59.2552 50.8307 58.7868 50.5681 58.2265C48.4875 54.5531 46.277 50.9393 44.2265 47.2461C43.9149 46.518 43.3772 45.9076 42.6917 45.504C42.0062 45.1004 41.2087 44.9247 40.4155 45.0024C36.8646 45.1315 33.3137 45.0024 29.7528 45.0024C26.8421 45.0024 26.402 45.7966 27.8824 48.3779C29.3627 50.9592 31.0432 53.7589 32.5735 56.4692C33.8739 58.7626 33.2537 59.8845 30.6331 59.9142H18.7101C18.1198 59.9388 17.5353 59.7898 17.03 59.4861C16.5247 59.1823 16.1209 58.7372 15.8694 58.2066C10.8414 49.4634 5.76015 40.7301 0.625526 32.0067C0.217871 31.4087 0 30.7033 0 29.9813C0 29.2594 0.217871 28.554 0.625526 27.956C5.78015 19.1731 10.9048 10.3703 15.9994 1.54758C16.2486 1.05049 16.6416 0.63851 17.128 0.364373C17.6145 0.0902353 18.1723 -0.0335912 18.7301 0.0087409H25.0016ZM34.0039 29.9119C33.7338 29.346 33.5138 28.7701 33.2037 28.2439C31.2632 24.8751 29.3061 21.5194 27.3322 18.177C26.222 16.2807 25.1817 16.2807 24.0114 18.2465C22.0109 21.5128 20.1704 24.8386 18.2099 28.105C17.8289 28.6409 17.6244 29.2807 17.6244 29.9367C17.6244 30.5926 17.8289 31.2325 18.2099 31.7684C20.1304 34.9056 21.9309 38.1024 23.7713 41.2893C25.1617 43.7118 26.1319 43.7515 27.5323 41.3688C29.5328 38.023 31.4233 34.6574 33.3637 31.2918C33.6138 30.8947 33.7738 30.438 34.0039 29.9317V29.9119Z" fill="url(#paint0_linear_744_13)"/>
<defs>
<linearGradient id="paint0_linear_744_13" x1="-0.00463215" y1="29.9813" x2="68.0324" y2="29.9813" gradientUnits="userSpaceOnUse">
<stop stop-color="#E732EC"/>
<stop offset="0.49" stop-color="#F7DB53"/>
<stop offset="0.99" stop-color="#7AFBF6"/>
</linearGradient>
</defs>
</svg>
