<svg width="20" height="20" viewBox="0 0 20 20" fill="none" xmlns="http://www.w3.org/2000/svg">
<path d="M10 20C15.5225 20 20 15.5225 20 10C20 4.4775 15.5225 0 10 0C4.4775 0 0 4.4775 0 10C0 15.5225 4.4775 20 10 20Z" fill="#F0F0F0"/>
<path d="M9.56424 10H20.0001C20.0006 9.11921 19.8849 8.24219 19.6559 7.39167H9.56507L9.56424 10ZM9.56424 4.78167H18.5317C17.9202 3.78461 17.1393 2.90193 16.2242 2.17334H9.56424V4.78167ZM10.0001 20C12.3534 20 14.5167 19.1867 16.2251 17.8258H3.77507C5.54291 19.2365 7.73836 20.0033 10.0001 20ZM1.46757 15.2167H18.5317C19.0291 14.4055 19.4074 13.5271 19.6551 12.6083H0.344238C0.594238 13.5383 0.975905 14.4142 1.46757 15.2167Z" fill="#D80027"/>
<path d="M4.6325 1.56167H5.54333L4.69583 2.1775L5.02 3.17417L4.17167 2.5575L3.32417 3.17417L3.60417 2.31333C2.8575 2.935 2.20417 3.66333 1.66417 4.475H1.95583L1.41667 4.86667C1.33333 5.00667 1.2525 5.15 1.175 5.29417L1.43333 6.08667L0.951667 5.7375C0.833333 5.99167 0.723333 6.25 0.625 6.51417L0.908333 7.3875H1.95667L1.10917 8.00417L1.4325 9L0.585 8.38417L0.0766667 8.75333C0.0275 9.16167 0 9.57833 0 10H10V0C8.025 0 6.18333 0.573333 4.6325 1.56167ZM5.02 9L4.17167 8.38417L3.32417 9L3.64833 8.00333L2.80083 7.3875H3.84833L4.17167 6.39167L4.49583 7.3875H5.54333L4.69583 8.00417L5.02 9ZM4.69583 5.09083L5.02 6.08667L4.17167 5.47083L3.32417 6.0875L3.64833 5.09083L2.80083 4.47417H3.84833L4.17167 3.47833L4.49583 4.475H5.54333L4.69583 5.09083ZM8.60667 9L7.75917 8.38417L6.91167 9L7.235 8.00333L6.3875 7.3875H7.435L7.75917 6.39167L8.0825 7.3875H9.13083L8.2825 8.00417L8.60667 9ZM8.2825 5.09083L8.60667 6.08667L7.75917 5.47083L6.91167 6.0875L7.235 5.09083L6.3875 4.47417H7.435L7.75917 3.47833L8.0825 4.475H9.13083L8.2825 5.09083ZM8.2825 2.1775L8.60667 3.17417L7.75917 2.5575L6.91167 3.17417L7.235 2.1775L6.3875 1.56167H7.435L7.75917 0.565L8.0825 1.56167H9.13083L8.2825 2.1775Z" fill="#0052B4"/>
</svg>
