<svg width="35" height="35" viewBox="0 0 35 35" fill="none" xmlns="http://www.w3.org/2000/svg">
<path d="M17.5 35C27.1644 35 35 27.1644 35 17.5C35 7.83563 27.1644 0 17.5 0C7.83563 0 0 7.83563 0 17.5C0 27.1644 7.83563 35 17.5 35Z" fill="#F0F0F0"/>
<path d="M33.9121 23.5856C34.615 21.6898 35 19.6394 35 17.5C35 15.3592 34.615 13.3088 33.9121 11.4129H1.08793C0.366233 13.3606 -0.00217782 15.4214 9.68448e-06 17.4985C9.68448e-06 19.6394 0.38501 21.6898 1.08793 23.5856L17.5 25.1081L33.9121 23.5856Z" fill="#0052B4"/>
<path d="M17.5 35C25.025 35 31.4402 30.2502 33.9121 23.5856H1.08936C3.56269 30.2502 9.97644 35 17.5014 35H17.5Z" fill="#D80027"/>
</svg>
