<svg width="24" height="24" viewBox="0 0 24 24" fill="none" xmlns="http://www.w3.org/2000/svg">
<path d="M3.71451 3.04798C3.62457 3.00407 3.52349 2.98828 3.42445 3.00267C3.32541 3.01706 3.233 3.06096 3.15927 3.12864C3.08554 3.19632 3.03392 3.28465 3.01113 3.3821C2.98834 3.47956 2.99544 3.58162 3.03151 3.67498L5.87451 11.302C6.04219 11.7522 6.04219 12.2477 5.87451 12.698L3.03251 20.325C2.99663 20.4182 2.98961 20.5201 3.01239 20.6174C3.03517 20.7147 3.08668 20.8028 3.16023 20.8705C3.23378 20.9381 3.32597 20.982 3.42482 20.9966C3.52367 21.0111 3.62461 20.9956 3.71451 20.952L21.7145 12.452C21.8001 12.4115 21.8725 12.3475 21.9232 12.2675C21.9738 12.1875 22.0007 12.0947 22.0007 12C22.0007 11.9053 21.9738 11.8125 21.9232 11.7325C21.8725 11.6525 21.8001 11.5885 21.7145 11.548L3.71451 3.04798Z" stroke="black" stroke-width="2" stroke-linecap="round" stroke-linejoin="round"/>
<path d="M6 12H22" stroke="black" stroke-width="2" stroke-linecap="round" stroke-linejoin="round"/>
</svg>
