<svg width="42" height="42" viewBox="0 0 42 42" fill="none" xmlns="http://www.w3.org/2000/svg">
<path d="M23.9219 14H31.4994C32.4276 14 33.3179 14.3687 33.9742 15.0251C34.6306 15.6815 34.9994 16.5717 34.9994 17.5V25.0775" stroke="#C1B7D5" stroke-width="3" stroke-linecap="round" stroke-linejoin="round"/>
<path d="M3.5 24.5H7" stroke="#C1B7D5" stroke-width="3" stroke-linecap="round" stroke-linejoin="round"/>
<path d="M35 24.5H38.5" stroke="#C1B7D5" stroke-width="3" stroke-linecap="round" stroke-linejoin="round"/>
<path d="M38.5 38.5L3.5 3.5" stroke="#C1B7D5" stroke-width="3" stroke-linecap="round" stroke-linejoin="round"/>
<path d="M14 14H10.5C9.57174 14 8.6815 14.3687 8.02513 15.0251C7.36875 15.6815 7 16.5717 7 17.5V31.5C7 32.4283 7.36875 33.3185 8.02513 33.9749C8.6815 34.6313 9.57174 35 10.5 35H31.5C32.4282 34.9998 33.3183 34.6309 33.9745 33.9745" stroke="#C1B7D5" stroke-width="3" stroke-linecap="round" stroke-linejoin="round"/>
<path d="M15.75 22.75V26.25" stroke="#C1B7D5" stroke-width="3" stroke-linecap="round" stroke-linejoin="round"/>
<path d="M16.9219 7H20.9994V11.0775" stroke="#C1B7D5" stroke-width="3" stroke-linecap="round" stroke-linejoin="round"/>
</svg>
