<svg width="25" height="25" viewBox="0 0 25 25" fill="none" xmlns="http://www.w3.org/2000/svg">
<path d="M10.2129 11.2347V17.3628" stroke="#C40000" stroke-width="2" stroke-linecap="round" stroke-linejoin="round"/>
<path d="M14.2988 11.2347V17.3628" stroke="#C40000" stroke-width="2" stroke-linecap="round" stroke-linejoin="round"/>
<path d="M19.4062 6.12805V20.4268C19.4062 20.9686 19.191 21.4881 18.8079 21.8712C18.4248 22.2543 17.9052 22.4695 17.3635 22.4695H7.1501C6.60835 22.4695 6.08879 22.2543 5.70571 21.8712C5.32263 21.4881 5.10742 20.9686 5.10742 20.4268V6.12805" stroke="#C40000" stroke-width="2" stroke-linecap="round" stroke-linejoin="round"/>
<path d="M3.06445 6.12805H21.4486" stroke="#C40000" stroke-width="2" stroke-linecap="round" stroke-linejoin="round"/>
<path d="M8.17188 6.12802V4.08534C8.17188 3.54359 8.38709 3.02403 8.77016 2.64095C9.15324 2.25787 9.6728 2.04266 10.2146 2.04266H14.2999C14.8417 2.04266 15.3612 2.25787 15.7443 2.64095C16.1274 3.02403 16.3426 3.54359 16.3426 4.08534V6.12802" stroke="#C40000" stroke-width="2" stroke-linecap="round" stroke-linejoin="round"/>
</svg>
