<svg width="42" height="42" viewBox="0 0 42 42" fill="none" xmlns="http://www.w3.org/2000/svg">
<path d="M26.25 15.75L15.75 26.25" stroke="#1E1E1E" stroke-width="3" stroke-linecap="round" stroke-linejoin="round"/>
<path d="M4.5255 29.2705C3.86908 28.6143 3.5002 27.7242 3.5 26.796V15.204C3.5002 14.2758 3.86908 13.3857 4.5255 12.7295L12.7295 4.5255C13.3857 3.86908 14.2758 3.5002 15.204 3.5H26.796C27.7242 3.5002 28.6143 3.86908 29.2705 4.5255L37.4745 12.7295C38.1309 13.3857 38.4998 14.2758 38.5 15.204V26.796C38.4998 27.7242 38.1309 28.6143 37.4745 29.2705L29.2705 37.4745C28.6143 38.1309 27.7242 38.4998 26.796 38.5H15.204C14.2758 38.4998 13.3857 38.1309 12.7295 37.4745L4.5255 29.2705Z" stroke="#1E1E1E" stroke-width="3" stroke-linecap="round" stroke-linejoin="round"/>
<path d="M15.75 15.75L26.25 26.25" stroke="#1E1E1E" stroke-width="3" stroke-linecap="round" stroke-linejoin="round"/>
</svg>
