<svg width="42" height="42" viewBox="0 0 42 42" fill="none" xmlns="http://www.w3.org/2000/svg">
<path d="M28 36.75V33.25C28 31.3935 27.2625 29.613 25.9497 28.3003C24.637 26.9875 22.8565 26.25 21 26.25H10.5C8.64348 26.25 6.86301 26.9875 5.55025 28.3003C4.2375 29.613 3.5 31.3935 3.5 33.25V36.75" stroke="#C1B7D5" stroke-width="3" stroke-linecap="round" stroke-linejoin="round"/>
<path d="M28 5.474C29.5011 5.86315 30.8304 6.73971 31.7794 7.96611C32.7284 9.19251 33.2433 10.6993 33.2433 12.25C33.2433 13.8007 32.7284 15.3075 31.7794 16.5339C30.8304 17.7603 29.5011 18.6369 28 19.026" stroke="#C1B7D5" stroke-width="3" stroke-linecap="round" stroke-linejoin="round"/>
<path d="M38.5 36.75V33.25C38.4988 31.699 37.9826 30.1923 37.0324 28.9665C36.0822 27.7407 34.7517 26.8652 33.25 26.4775" stroke="#C1B7D5" stroke-width="3" stroke-linecap="round" stroke-linejoin="round"/>
<path d="M15.75 19.25C19.616 19.25 22.75 16.116 22.75 12.25C22.75 8.38401 19.616 5.25 15.75 5.25C11.884 5.25 8.75 8.38401 8.75 12.25C8.75 16.116 11.884 19.25 15.75 19.25Z" stroke="#C1B7D5" stroke-width="3" stroke-linecap="round" stroke-linejoin="round"/>
</svg>
