<svg width="42" height="42" viewBox="0 0 42 42" fill="none" xmlns="http://www.w3.org/2000/svg">
<path d="M38.5 19.25L36.232 16.982C35.8416 16.5883 35.377 16.2759 34.8652 16.0627C34.3534 15.8494 33.8044 15.7397 33.25 15.7397C32.6956 15.7397 32.1466 15.8494 31.6348 16.0627C31.123 16.2759 30.6584 16.5883 30.268 16.982L19.25 28" stroke="#C1B7D5" stroke-width="3" stroke-linecap="round" stroke-linejoin="round"/>
<path d="M7 14C6.07174 14 5.1815 14.3687 4.52513 15.0251C3.86875 15.6815 3.5 16.5717 3.5 17.5V35C3.5 35.9283 3.86875 36.8185 4.52513 37.4749C5.1815 38.1313 6.07174 38.5 7 38.5H24.5C25.4283 38.5 26.3185 38.1313 26.9749 37.4749C27.6313 36.8185 28 35.9283 28 35" stroke="#C1B7D5" stroke-width="3" stroke-linecap="round" stroke-linejoin="round"/>
<path d="M22.75 14C23.7165 14 24.5 13.2165 24.5 12.25C24.5 11.2835 23.7165 10.5 22.75 10.5C21.7835 10.5 21 11.2835 21 12.25C21 13.2165 21.7835 14 22.75 14Z" fill="#C1B7D5" stroke="#C1B7D5" stroke-width="3" stroke-linecap="round" stroke-linejoin="round"/>
<path d="M35 3.5H17.5C15.567 3.5 14 5.067 14 7V24.5C14 26.433 15.567 28 17.5 28H35C36.933 28 38.5 26.433 38.5 24.5V7C38.5 5.067 36.933 3.5 35 3.5Z" stroke="#C1B7D5" stroke-width="3" stroke-linecap="round" stroke-linejoin="round"/>
</svg>
