<svg width="32" height="32" viewBox="0 0 32 32" fill="none" xmlns="http://www.w3.org/2000/svg">
<path d="M12.5151 5.35246C12.5864 4.60231 12.9348 3.9057 13.4922 3.39871C14.0497 2.89172 14.7762 2.61078 15.5297 2.61078C16.2832 2.61078 17.0097 2.89172 17.5672 3.39871C18.1246 3.9057 18.473 4.60231 18.5444 5.35246C18.5872 5.83705 18.7462 6.30418 19.0078 6.71431C19.2695 7.12445 19.6261 7.46551 20.0474 7.70863C20.4688 7.95175 20.9425 8.08978 21.4286 8.11103C21.9146 8.13228 22.3985 8.03612 22.8395 7.8307C23.5243 7.51982 24.3002 7.47484 25.0162 7.7045C25.7323 7.93417 26.3373 8.42204 26.7135 9.07319C27.0897 9.72433 27.2101 10.4921 27.0514 11.2272C26.8927 11.9623 26.4662 12.612 25.8548 13.0499C25.4567 13.3292 25.1318 13.7003 24.9074 14.1318C24.6831 14.5633 24.5659 15.0424 24.5659 15.5288C24.5659 16.0151 24.6831 16.4942 24.9074 16.9257C25.1318 17.3572 25.4567 17.7283 25.8548 18.0076C26.4662 18.4455 26.8927 19.0953 27.0514 19.8303C27.2101 20.5654 27.0897 21.3332 26.7135 21.9843C26.3373 22.6355 25.7323 23.1233 25.0162 23.353C24.3002 23.5827 23.5243 23.5377 22.8395 23.2268C22.3985 23.0214 21.9146 22.9252 21.4286 22.9465C20.9425 22.9677 20.4688 23.1058 20.0474 23.3489C19.6261 23.592 19.2695 23.9331 19.0078 24.3432C18.7462 24.7533 18.5872 25.2205 18.5444 25.705C18.473 26.4552 18.1246 27.1518 17.5672 27.6588C17.0097 28.1658 16.2832 28.4467 15.5297 28.4467C14.7762 28.4467 14.0497 28.1658 13.4922 27.6588C12.9348 27.1518 12.5864 26.4552 12.5151 25.705C12.4723 25.2203 12.3133 24.753 12.0516 24.3427C11.7899 23.9324 11.4331 23.5913 11.0116 23.3481C10.59 23.105 10.1161 22.967 9.62993 22.9459C9.14374 22.9248 8.65963 23.0211 8.21859 23.2268C7.53386 23.5377 6.75795 23.5827 6.04188 23.353C5.32581 23.1233 4.72081 22.6355 4.34463 21.9843C3.96844 21.3332 3.84798 20.5654 4.0067 19.8303C4.16542 19.0953 4.59195 18.4455 5.20329 18.0076C5.60139 17.7283 5.92636 17.3572 6.1507 16.9257C6.37505 16.4942 6.49218 16.0151 6.49218 15.5288C6.49218 15.0424 6.37505 14.5633 6.1507 14.1318C5.92636 13.7003 5.60139 13.3292 5.20329 13.0499C4.59281 12.6117 4.16703 11.9623 4.0087 11.2277C3.85036 10.4932 3.97079 9.72598 4.34657 9.07527C4.72235 8.42455 5.32664 7.93679 6.042 7.70677C6.75736 7.47676 7.53268 7.52093 8.21729 7.8307C8.65827 8.03612 9.14226 8.13228 9.62827 8.11103C10.1143 8.08978 10.588 7.95175 11.0094 7.70863C11.4308 7.46551 11.7874 7.12445 12.049 6.71431C12.3106 6.30418 12.4696 5.83705 12.5125 5.35246" stroke="#C1B7D5" stroke-width="2" stroke-linecap="round" stroke-linejoin="round"/>
<path d="M15.5298 19.4118C17.674 19.4118 19.4122 17.6736 19.4122 15.5294C19.4122 13.3853 17.674 11.6471 15.5298 11.6471C13.3856 11.6471 11.6475 13.3853 11.6475 15.5294C11.6475 17.6736 13.3856 19.4118 15.5298 19.4118Z" stroke="#C1B7D5" stroke-width="2" stroke-linecap="round" stroke-linejoin="round"/>
</svg>
