<svg width="42" height="42" viewBox="0 0 42 42" fill="none" xmlns="http://www.w3.org/2000/svg">
<path d="M17.9688 36.75C18.276 37.282 18.7178 37.7238 19.2498 38.031C19.7819 38.3381 20.3854 38.4998 20.9998 38.4998C21.6141 38.4998 22.2176 38.3381 22.7497 38.031C23.2817 37.7238 23.7236 37.282 24.0308 36.75" stroke="#C1B7D5" stroke-width="3" stroke-linecap="round" stroke-linejoin="round"/>
<path d="M5.7082 26.8205C5.47959 27.0711 5.32872 27.3827 5.27395 27.7174C5.21917 28.0521 5.26286 28.3956 5.39968 28.7059C5.53651 29.0163 5.76058 29.2802 6.04465 29.4656C6.32871 29.6509 6.66051 29.7498 6.9997 29.75H34.9997C35.3388 29.7501 35.6707 29.6517 35.955 29.4667C36.2392 29.2817 36.4636 29.0181 36.6008 28.7079C36.7379 28.3977 36.7821 28.0544 36.7277 27.7196C36.6734 27.3849 36.5229 27.0731 36.2947 26.8222C33.9672 24.423 31.4997 21.8733 31.4997 14C31.4997 11.2152 30.3935 8.54451 28.4243 6.57538C26.4552 4.60625 23.7845 3.5 20.9997 3.5C18.2149 3.5 15.5442 4.60625 13.5751 6.57538C11.6059 8.54451 10.4997 11.2152 10.4997 14C10.4997 21.8733 8.03045 24.423 5.7082 26.8205Z" stroke="#C1B7D5" stroke-width="3" stroke-linecap="round" stroke-linejoin="round"/>
</svg>
