<svg width="42" height="42" viewBox="0 0 42 42" fill="none" xmlns="http://www.w3.org/2000/svg">
<path d="M5.23644 28.5985C5.49375 29.2476 5.55104 29.9588 5.40094 30.6408L3.53719 36.3983C3.47713 36.6902 3.49266 36.9927 3.58229 37.277C3.67193 37.5613 3.8327 37.818 4.04935 38.0227C4.26601 38.2275 4.53138 38.3735 4.82029 38.4469C5.10919 38.5203 5.41207 38.5187 5.70019 38.4423L11.6729 36.6958C12.3164 36.5681 12.9829 36.6239 13.5962 36.8568C17.3331 38.6019 21.5663 38.9711 25.5489 37.8993C29.5316 36.8274 33.0077 34.3834 35.3639 30.9984C37.7202 27.6134 38.8051 23.505 38.4275 19.398C38.0498 15.291 36.2337 11.4493 33.2996 8.55086C30.3654 5.65238 26.5019 3.88333 22.3906 3.55583C18.2793 3.22833 14.1844 4.36343 10.8285 6.76086C7.4725 9.15828 5.07112 12.664 4.048 16.6594C3.02488 20.6548 3.44578 24.8832 5.23644 28.5985Z" stroke="#C1B7D5" stroke-width="3" stroke-linecap="round" stroke-linejoin="round"/>
</svg>
